<svg xmlns="http://www.w3.org/2000/svg" width="250" height="250" viewBox="0 0 250 250">
  <path d="m198.4 200.1-36.05-52.23-14.04 13.49 19.89 24.39-25.1-20.35-15.09 11.25 77.1 60.89-6.71-37.44z" fill="#006DE5"/>
  <path d="m105.1 67.34-10.47-17.44c-14.35-22.68-35.67-36.89-64.36-37.14h-10.47l43.5 42.13 1.52 12.45h40.28z" fill="#006DE5"/>
  <path fill="#E02308" fill-rule="evenodd" clip-rule="evenodd" d="m240.5 19.71c-12.72 24.87-28.11 40.12-51.57 54.21l-46.19 0.24-92.45 125.6-5.73 37.69 179.5-149.2c15.63-13.74 24.61-37.18 16.42-68.59zM139.1 107.8l-56.52 76.92 67.96-58.9-11.44-18.02z"/>
  <path d="m107.3 73.92-46.69-0.49c-21.07-10.77-38.42-26.26-50.62-53.97-9.22 21.95-5.8 48.3 13.61 67.46l63.85 53.47 33.44-46.08-13.59-20.39z" fill="#006DE5"/>
  <path d="m144.3 67.34 40.03 0.25 1.52-12.45 43-42.63h-7.21c-30.45 0-51.52 13.74-66.87 38.61l-10.47 16.22z" fill="#E02308"/>
</svg>